<svg xmlns="http://www.w3.org/2000/svg" viewBox="0 0 464.16 122.13"><defs><style>.cls-1{fill:#fff}</style></defs><g id="Layer_2" data-name="Layer 2"><g id="Layer_1-2" data-name="Layer 1"><g id="Layer_1-2-2" data-name="Layer 1-2"><g id="Variation-2"><g id="Logotype"><g id="Group-3"><path id="Fill-1" class="cls-1" d="M123 77.6a23.94 23.94 0 0 0-3.39.24 6.22 6.22 0 0 0-5.5 6.24V97.4c0 3.27 2.68 5.85 6.38 6.13.84.06 1.7.1 2.52.1a18.48 18.48 0 0 0 2.27-.09c3.83-.3 6.18-2.41 6.6-6a76.35 76.35 0 0 0 0-14 6.28 6.28 0 0 0-5.36-5.71 27.77 27.77 0 0 0-3.52-.23zm-9.76 42.24c-1.7 0-4.93-.93-4.93-4.44V82.18c0-3.35 2.52-6.26 4.21-7.38a17.43 17.43 0 0 1 6.56-2.15 42.93 42.93 0 0 1 4.39-.28 22.45 22.45 0 0 1 5 .53c4.87 1.12 7.82 4.29 8.79 9.32a22.27 22.27 0 0 1 .35 3.9v1.26c0 2.84.09 5.77 0 8.66a17.84 17.84 0 0 1-1.07 5.25c-1.46 3.94-4.46 6.37-8.92 7.18a21.39 21.39 0 0 1-3.83.34 26.79 26.79 0 0 1-3.35-.22 9 9 0 0 1-6.5-3.71v14.94z"/></g><g id="Group-6"><path id="Fill-4" class="cls-1" d="M246.17 119.7a4.09 4.09 0 0 1-.7 0l-.84-.13 4.93-11.88a4.58 4.58 0 0 0 .49-3c-3-7.34-5.8-14.41-8.68-21.63l-2.81-7c-.51-1.25-.8-2.14-.37-2.75s1.37-.64 2.65-.64a2.7 2.7 0 0 1 2.88 2.14c.68 1.69 8.34 21 9.77 24.55l9.79-24.34a3.54 3.54 0 0 1 3.22-2.56 4.18 4.18 0 0 1 1.52.32 1.43 1.43 0 0 1 1 1.73v.15l-16.46 40.72a6.75 6.75 0 0 1-6.43 4.29"/></g><path id="Fill-7" class="cls-1" d="M157.91 92c-2.14 0-4.08.06-5.48.19-3.56.32-4.93 1.65-5 4.92v2a4.28 4.28 0 0 0 4.15 4.42 2.16 2.16 0 0 0 .36 0c1 0 1.84.06 2.62.06s1.64 0 2.38-.07a8.84 8.84 0 0 0 7.18-4.16c1.08-1.64 1.08-3.45 1-5.36v-1a4.82 4.82 0 0 0 0-.76 5.7 5.7 0 0 0-.83-.09c-1.79-.09-4.15-.15-6.38-.15zm12 16.8c-1.65 0-4.77-.93-4.77-4.46v-.23l-.08.09a11.55 11.55 0 0 1-8.91 4.57h-1.53a29.31 29.31 0 0 1-4.68-.34 8.91 8.91 0 0 1-7.58-6.64 13.76 13.76 0 0 1 0-7.89 8.28 8.28 0 0 1 7.41-6.32 74.33 74.33 0 0 1 8.44-.45c2.14 0 4.29.08 6.11.22h.42a1.28 1.28 0 0 0 .39 0 3.85 3.85 0 0 0 0-1 37.05 37.05 0 0 0-.57-5.36c-.33-1.58-1.43-2.57-3.37-3a18.3 18.3 0 0 0-3.9-.45 12 12 0 0 0-9.17 3.75 2.82 2.82 0 0 1-1.93 1.21 1.57 1.57 0 0 1-.79-.22 12.82 12.82 0 0 1-2.14-1.67c-.36-.36-.54-1.13.23-2.15a15.3 15.3 0 0 1 7.09-5 22 22 0 0 1 6.79-1 24.69 24.69 0 0 1 5.36.55 8.91 8.91 0 0 1 7.19 6.82 23.35 23.35 0 0 1 .7 4.91c.28 6.43 0 23.24 0 23.4v.65z"/><path id="Fill-9" class="cls-1" d="M182.7 108.79c-1.68 0-4.84-.91-4.84-4.37v-31.9h.66c1.7 0 4.92.87 4.92 4.17v.06h.06a16.59 16.59 0 0 1 3.14-2.53 11.46 11.46 0 0 1 6.14-1.61 16.15 16.15 0 0 1 2.2.15 13.9 13.9 0 0 1 3.36.72 1.59 1.59 0 0 1 1.14 1.93 1.72 1.72 0 0 1-.07.21 6.9 6.9 0 0 1-.72 1.5v.08a1.57 1.57 0 0 1-1.4.92 5.52 5.52 0 0 1-1.08-.16 16 16 0 0 0-3.51-.42 10.58 10.58 0 0 0-4 .72 18.34 18.34 0 0 0-3.12 1.74 4.74 4.74 0 0 0-2.14 4.43v24.46z"/><path id="Fill-11" class="cls-1" d="M208.71 108.28c-1.67 0-4.84-.83-4.84-4V72.42h.68a4.71 4.71 0 0 1 4.82 4.6.67.67 0 0 1 0 .2v31.08z"/><path id="Fill-13" class="cls-1" d="M225.25 108.28c-1.61 0-4.64-.83-4.64-4v-26h-4.05c-.83 0-1.27-.93-1.27-1.6v-2.6c0-.69.42-1.07 1.27-1.07h4.05v-9.86h.66c1.61 0 4.65.6 4.65 3.93V73h7.9c1.16 0 1.4.55 1.4 1.07v2.63a1.64 1.64 0 0 1-1.4 1.6h-7.9v30z"/><path id="Fill-15" class="cls-1" d="M206.61 65.5a3.78 3.78 0 1 1 3.81-3.78 3.77 3.77 0 0 1-3.81 3.78"/></g></g><path class="cls-1" d="M320.25 98.3c0 7.31-5.55 10.12-11.93 10.12h-2.82c-6.43 0-10.61-3.17-11.67-8.72-.14-.63.21-1.07.92-1.07h1.76a1 1 0 0 1 1 .92v.06c.91 3.8 3.37 5.36 8 5.36h2.82c4.76 0 8.49-1.47 8.49-6.75s-4.56-5.84-9.77-6.43c-7.59-.83-12.65-2.14-12.65-9.76 0-6.68 4.51-9.34 11.46-9.34h2c6.53 0 11 2.94 11.24 9.34 0 .7-.2 1.13-1 1.13h-1.5a1.07 1.07 0 0 1-1.07-1.07V82c-.36-4.22-2.95-6.18-7.8-6.18H306c-5.06 0-8.16 1.46-8.16 6.24 0 5.07 3.66 5.91 9.21 6.54 7.24.99 13.2 1.82 13.2 9.7zM329 72.92h1.34a.93.93 0 0 1 1.07.77.76.76 0 0 1 0 .3v33a.92.92 0 0 1-1.07 1.07H329a.92.92 0 0 1-1-1.06V74a.93.93 0 0 1 .78-1.06.94.94 0 0 1 .22-.02zm.14-14.05h1.07a1 1 0 0 1 1.08.77 1.5 1.5 0 0 1 0 .3v1.55a1 1 0 0 1-.8 1.07h-1.35a.93.93 0 0 1-1.07-.77.76.76 0 0 1 0-.3v-1.55a.92.92 0 0 1 .74-1.07 1 1 0 0 1 .35 0zM367.49 74v36.13c0 8.08-5 12-14.55 12a24 24 0 0 1-6.26-.63c-.41-.06-.63-.28-.63-.63v-2.14c0-.42.22-.64.63-.56a24.43 24.43 0 0 0 6.26.63c6.82 0 11.11-1.48 11.11-8.57v-7.51c-1.48 3.52-4.37 5.7-9.56 5.7H352c-7.31 0-12.45-4.71-12.45-12.94v-10c0-8.37 5.14-12.8 12.45-12.8h2.53c5.19 0 8.08 1.83 9.56 5.27V74a.92.92 0 0 1 .76-1.07.81.81 0 0 1 .31 0h1.34a.92.92 0 0 1 1 .82 1.13 1.13 0 0 1-.01.25zm-3.44 21.79V85.64c0-6.54-3.22-9.64-9.07-9.64h-3c-5.84 0-9.07 3.16-9.07 9.64v10.13c0 6 3.22 9.27 9.07 9.27h3c5.83-.04 9.07-3.23 9.07-9.27zM402 85.08V107a.92.92 0 0 1-1.07 1.07h-1.34a.92.92 0 0 1-1.07-1.07V85.3c0-6.12-1.4-9.36-7.66-9.36h-1.19a12.07 12.07 0 0 0-10.33 5.55V107a.93.93 0 0 1-.77 1.07.76.76 0 0 1-.3 0h-1.33a.92.92 0 0 1-1.07-.76.81.81 0 0 1 0-.31V74a.94.94 0 0 1 .79-1.07h1.61a.94.94 0 0 1 1.07.79 1.31 1.31 0 0 1 0 .28v4.43a12.87 12.87 0 0 1 11-5.77h.57c8.28-.02 11.09 4.2 11.09 12.42zm34.58.28v4.43a2.14 2.14 0 0 1-2.14 2.15H413v4.14c0 5.7 3.21 8.93 9.07 8.93h2.31c4.92 0 6.26-2 8.44-4.63.49-.57.77-.71 1.47-.22l.92.64c.7.49.63.91.21 1.47-2.53 3.09-5.07 6.11-11 6.11H422c-7.39 0-12.66-4.64-12.66-12.5V85.4c0-8.37 5.27-12.8 12.66-12.8h2.31c6.09.04 12.27 4.54 12.27 12.76zm-3.58.28c0-6.54-3.73-9.64-8.65-9.64H422c-5.85 0-9.07 3.16-9.07 9.64v3.22h20zm29.16-9.13a10.37 10.37 0 0 0-3.58-.57h-.85a12.07 12.07 0 0 0-10.33 5.55V107a.92.92 0 0 1-1.07 1.07H445a.92.92 0 0 1-1.07-1.07V74a.93.93 0 0 1 .77-1.07.76.76 0 0 1 .3 0h1.34a.93.93 0 0 1 1.07.77.76.76 0 0 1 0 .3v4.43a13.13 13.13 0 0 1 11.48-5.77 19.59 19.59 0 0 1 4.57.57 1 1 0 0 1 .68 1.18.88.88 0 0 1-.05.15l-.57 1.44a.93.93 0 0 1-1.18.57 1 1 0 0 1-.18-.06z"/><g id="layer1"><path id="rect95169" class="cls-1" d="M66.67 0L0 41.66l8.76 14 18.48-11.43v-9h14.47l33.88-21zm11.25 18L50.08 35.28h31.18L86.62 32zM89 35.67L81.9 40v8.09H68.85L50.74 59.35h29.54L97.2 48.86zM29.32 48.13L11.1 59.45l8.7 13.93 7.51-4.65v-9.38h15.08L60.5 48.13zm70.21 4.46L82 63.49v8.72H67.88L32.72 94l8.94 14.3 66.67-41.66zM30 72.21l-7.85 4.87 8.26 13.2 29.11-18.07z"/></g></g></g></g></svg>