<svg id="Layer_1" xmlns="http://www.w3.org/2000/svg" viewBox="0 0 500 500"><style>.st1{fill:#5f8f37}.st2{fill:#a5d6e5}.st4{fill:#3d7a8e}.st6{fill:#b19ae2}.st8{fill:#203d16}.st9{fill:#8a612e}.st10{fill:#1d3d21}.st11{fill:#391321}</style><circle cx="249.8" cy="250.4" r="249.6" fill="#eee"/><circle class="st1" cx="249.8" cy="71.9" r="34.8"/><circle class="st2" cx="249.8" cy="161.2" r="34.8"/><circle cx="249.8" cy="250.4" r="34.8" fill="#0e113a"/><circle class="st2" cx="249.8" cy="339.6" r="34.8"/><circle class="st1" cx="249.8" cy="428.8" r="34.8"/><circle class="st4" cx="405.2" cy="161.2" r="34.8"/><circle cx="405.2" cy="250.4" r="34.8" fill="#508bcb"/><circle class="st4" cx="405.2" cy="339.6" r="34.8"/><circle class="st6" cx="94.4" cy="161.2" r="34.8"/><circle cx="94.4" cy="250.4" r="34.8" fill="#3b2613"/><circle class="st6" cx="94.4" cy="339.6" r="34.8"/><circle class="st8" cx="172.1" cy="116.5" r="34.8"/><circle class="st9" cx="172.1" cy="205.8" r="34.8"/><circle class="st9" cx="172.1" cy="295" r="34.8"/><circle class="st10" cx="172.1" cy="384.2" r="34.8"/><circle class="st8" cx="327.5" cy="116.5" r="34.8"/><circle class="st11" cx="327.5" cy="205.8" r="34.8"/><circle class="st11" cx="327.5" cy="295" r="34.8"/><circle class="st10" cx="327.5" cy="384.2" r="34.8"/></svg>