<svg xmlns="http://www.w3.org/2000/svg" viewBox="0 0 617.4 617.4"><path d="M477.6 617.4H139.8C62.6 617.4 0 554.8 0 477.6V139.8C0 62.6 62.6 0 139.8 0h337.8c77.2 0 139.8 62.6 139.8 139.8v337.8c0 77.2-62.6 139.8-139.8 139.8z" fill="#171717"/><path d="M367.3 58.3L55.1 253.4l41 65.6 86.5-53.5v-42.1h67.8L409.1 125l-41.8-66.7zm52.7 84.3l-130.4 80.9h146l25.1-15.4-40.7-65.5zm51.8 82.8l-33.2 20.3v37.9h-61.1l-84.8 52.7H431l79.2-49.1-38.4-61.8zm-279.4 58.3l-85.3 53 40.7 65.2 35.2-21.8v-43.9h70.6l84.8-52.5h-146zm328.8 20.9l-82.1 51v40.8H373l-164.7 102 41.9 67 312.2-195.1-41.2-65.7zm-325.6 91.9l-36.8 22.8 38.7 61.8 136.3-84.6H195.6z" fill="#fff"/></svg>