<?xml version="1.0" encoding="utf-8"?>
<!-- Generator: Adobe Illustrator 24.0.1, SVG Export Plug-In . SVG Version: 6.00 Build 0)  -->
<svg version="1.1" id="Layer_1" xmlns="http://www.w3.org/2000/svg" xmlns:xlink="http://www.w3.org/1999/xlink" x="0px" y="0px"
	 viewBox="0 0 500 500" style="enable-background:new 0 0 500 500;" xml:space="preserve">
<style type="text/css">
	.st0{fill:#EEEEEE;}
	.st1{fill:#5F8F37;}
	.st2{fill:#A5D6E5;}
	.st3{fill:#0E113A;}
	.st4{fill:#3D7A8E;}
	.st5{fill:#508BCB;}
	.st6{fill:#B19AE2;}
	.st7{fill:#3B2613;}
	.st8{fill:#203D16;}
	.st9{fill:#8A612E;}
	.st10{fill:#1D3D21;}
	.st11{fill:#391321;}
</style>
<circle class="st0" cx="249.8" cy="250.4" r="249.6"/>
<g>
	<g>
		<circle class="st1" cx="249.8" cy="71.9" r="34.8"/>
		<circle class="st2" cx="249.8" cy="161.2" r="34.8"/>
		<circle class="st3" cx="249.8" cy="250.4" r="34.8"/>
		<circle class="st2" cx="249.8" cy="339.6" r="34.8"/>
		<circle class="st1" cx="249.8" cy="428.8" r="34.8"/>
	</g>
	<g>
		<circle class="st4" cx="405.2" cy="161.2" r="34.8"/>
		<circle class="st5" cx="405.2" cy="250.4" r="34.8"/>
		<circle class="st4" cx="405.2" cy="339.6" r="34.8"/>
	</g>
	<g>
		<circle class="st6" cx="94.4" cy="161.2" r="34.8"/>
		<circle class="st7" cx="94.4" cy="250.4" r="34.8"/>
		<circle class="st6" cx="94.4" cy="339.6" r="34.8"/>
	</g>
	<g>
		<circle class="st8" cx="172.1" cy="116.5" r="34.8"/>
		<circle class="st9" cx="172.1" cy="205.8" r="34.8"/>
		<circle class="st9" cx="172.1" cy="295" r="34.8"/>
		<circle class="st10" cx="172.1" cy="384.2" r="34.8"/>
	</g>
	<g>
		<circle class="st8" cx="327.5" cy="116.5" r="34.8"/>
		<circle class="st11" cx="327.5" cy="205.8" r="34.8"/>
		<circle class="st11" cx="327.5" cy="295" r="34.8"/>
		<circle class="st10" cx="327.5" cy="384.2" r="34.8"/>
	</g>
</g>
</svg>
