<?xml version="1.0" encoding="utf-8"?>
<!-- Generator: Adobe Illustrator 24.0.1, SVG Export Plug-In . SVG Version: 6.00 Build 0)  -->
<svg version="1.1" id="Layer_1" xmlns="http://www.w3.org/2000/svg" xmlns:xlink="http://www.w3.org/1999/xlink" x="0px" y="0px"
	 viewBox="0 0 617.4 617.4" style="enable-background:new 0 0 617.4 617.4;" xml:space="preserve">
<style type="text/css">
	.st0{fill:#171717;}
	.st1{fill:#FFFFFF;}
</style>
<g>
	<path class="st0" d="M477.6,617.4H139.8C62.6,617.4,0,554.8,0,477.6V139.8C0,62.6,62.6,0,139.8,0h337.8
		c77.2,0,139.8,62.6,139.8,139.8v337.8C617.4,554.8,554.8,617.4,477.6,617.4z"/>
	<g id="Layer_1-2_1_">
		<g id="Layer_1-2-2_1_">
			<g id="layer1_1_">
				<path id="rect95169_1_" class="st1" d="M367.3,58.3L55.1,253.4l41,65.6l86.5-53.5v-42.1h67.8L409.1,125L367.3,58.3z M420,142.6
					l-130.4,80.9h146l25.1-15.4L420,142.6z M471.8,225.4l-33.2,20.3v37.9h-61.1l-84.8,52.7H431l79.2-49.1L471.8,225.4z M192.4,283.7
					l-85.3,53l40.7,65.2l35.2-21.8v-43.9h70.6l84.8-52.5H192.4z M521.2,304.6l-82.1,51v40.8h-66.1l-164.7,102l41.9,67l312.2-195.1
					L521.2,304.6z M195.6,396.5l-36.8,22.8l38.7,61.8l136.3-84.6H195.6z"/>
			</g>
		</g>
	</g>
</g>
</svg>
